<svg xmlns="http://www.w3.org/2000/svg" viewBox="0 0 512 512" width="512" height="512">
  <defs>
    <linearGradient id="o" x1="0" y1="0" x2="1" y2="1">
      <stop offset="0" stop-color="#ffa424"/>
      <stop offset="1" stop-color="#f57c00"/>
    </linearGradient>
  </defs>
  <rect width="512" height="512" rx="120" fill="url(#o)"/>
  <g fill="none" stroke="#fff" stroke-width="1.9" stroke-linecap="round" stroke-linejoin="round"
     transform="translate(256 270) scale(13.2) translate(-12 -12)">
    <path d="M12 6.528V3a1 1 0 0 1 1-1h0"/>
    <path d="M18.237 21A15 15 0 0 0 22 11a6 6 0 0 0-10-4.472A6 6 0 0 0 2 11a15.1 15.1 0 0 0 3.763 10 3 3 0 0 0 3.648.648 5.5 5.5 0 0 1 5.178 0A3 3 0 0 0 18.237 21"/>
  </g>
</svg>
